<svg width="18.000000" height="24.000000" viewBox="0 0 18 24" fill="none" xmlns="http://www.w3.org/2000/svg"
	 xmlns:xlink="http://www.w3.org/1999/xlink">
	<defs/>
	<path id="Vector"
		  d="M9.7 12.57C11.49 12.14 12.32 14.34 10.53 14.8C8.7 15.27 7.76 13.03 9.7 12.57ZM8.83 21.98L8.87 21.96C9.08 22.03 9.52 23.44 11.06 23.86C13.08 24.4 15.41 23.3 16.63 21.41C16.98 20.87 18.07 18.93 17.14 18.55C16.34 18.22 16.02 20.1 15.51 20.86C14.96 21.68 14.01 22.32 13.05 22.54C9.81 23.31 9.46 20.5 9.49 18.03C11.11 17.55 12.86 15.46 12.75 13.69C12.62 11.51 9.58 10.84 7.84 11.18C5.56 11.63 4.27 13.18 5.44 15.5C6.77 18.1 8.21 17.59 8.27 18.35C8.51 21.07 6.91 24.09 3.55 22.08C2.74 21.6 2.18 20.88 1.78 20.04C1.63 19.72 1.4 18.82 1.27 18.67C0.88 18.27 0.21 18.58 0.23 19.2C0.29 20.83 2.08 22.91 3.54 23.52C5.57 24.35 7.82 24.15 8.83 21.99L8.83 21.98ZM12.67 9.56C12.21 8.48 11.76 7.41 12.48 6.25C13.15 5.18 14.42 5.14 15.36 5.87C17.34 7.41 17.34 11.22 14.84 11.06C16.21 10.61 16.62 9.17 15.98 7.91L14.5 9.03L14.99 7.13C13.26 6.7 12.63 8.09 12.67 9.56L12.67 9.56ZM13.44 4.12C8.92 5.04 11.03 13.12 15.48 12.33C19.98 11.53 17.91 3.21 13.44 4.12ZM3.72 8.87L2.3 7.76C1.89 8.2 1.85 9.03 2.02 9.59C2.23 10.26 2.5 10.44 3.01 10.8C0.5 10.59 0.87 7.36 2.32 5.86C3.06 5.1 4.26 4.8 5.14 5.54C6.09 6.33 5.86 7.67 5.62 8.7C5.22 8.04 5.32 7.21 4.12 6.96C2.79 6.68 3.38 7.22 3.72 8.87ZM3.51 3.85C-1.19 4.63 -1.17 12.83 3.52 12.07C8.2 11.31 8.18 3.08 3.51 3.85ZM12.02 0.02C11.34 0.13 11.25 0.93 11.68 1.21C12.12 1.51 13.23 0.89 14.39 2.63C14.68 3.05 14.8 3.73 15.39 3.66C17 3.45 14.44 -0.37 12.02 0.02ZM4.38 0.04C3.34 0.19 2.49 0.83 1.89 1.66C0.43 3.7 1.89 4 2.31 3.38C2.88 2.54 3.18 1.61 4.36 1.35C4.85 1.25 5.74 1.5 5.69 0.63C5.66 -0.08 4.9 -0.04 4.38 0.04L4.38 0.04Z"
		  fill="#222327" fill-opacity="1.000000" fill-rule="evenodd"/>
</svg>
