<svg width="24.000000" height="24.000000" viewBox="0 0 24 24" fill="none" xmlns="http://www.w3.org/2000/svg"
	 xmlns:xlink="http://www.w3.org/1999/xlink">
	<defs/>
	<path id="Up arrow"
		  d="M5 15.06C5 15.59 5.41 16 5.93 16C6.19 16 6.42 15.89 6.6 15.71L12 10.23L17.39 15.71C17.57 15.89 17.81 16 18.06 16C18.58 16 19 15.59 19 15.06C19 14.81 18.9 14.59 18.73 14.42L12.73 8.32C12.52 8.1 12.27 8 12 8C11.72 8 11.48 8.1 11.27 8.32L5.26 14.41C5.09 14.59 5 14.81 5 15.06Z"
		  fill="#1A1A1A" fill-opacity="1.000000" fill-rule="evenodd"/>
</svg>
