<svg width="24.000000" height="24.000000" viewBox="0 0 24 24" fill="none" xmlns="http://www.w3.org/2000/svg" xmlns:xlink="http://www.w3.org/1999/xlink">
	<desc>
			Created with Pixso.
	</desc>
	<defs/>
	<path id="Vector" d="M18.87 2.7L5.12 2.7C3.4 2.7 2 4.1 2 5.82L2 16.76C2 18.48 3.4 19.89 5.12 19.89L12.54 19.89C12.84 19.89 13.11 19.72 13.24 19.45C13.37 19.18 13.34 18.86 13.16 18.63L11.12 15.99L16.78 8.78L20.43 13.14L20.43 14.46C20.43 14.89 20.78 15.24 21.21 15.24C21.65 15.24 22 14.89 22 14.46L22 5.82C22 4.1 20.59 2.7 18.87 2.7L18.87 2.7ZM17.36 7.04C17.21 6.86 16.98 6.76 16.75 6.76C16.51 6.76 16.29 6.87 16.15 7.06L10.13 14.71L8.08 12.06C7.93 11.87 7.71 11.76 7.46 11.76C7.46 11.76 7.46 11.76 7.46 11.76C7.22 11.76 6.99 11.87 6.84 12.07L5.13 14.3C4.86 14.64 4.93 15.13 5.27 15.4C5.61 15.66 6.1 15.6 6.36 15.25L7.47 13.82L10.95 18.32L5.12 18.32C4.26 18.32 3.56 17.62 3.56 16.76L3.56 5.82C3.56 4.96 4.26 4.26 5.12 4.26L18.87 4.26C19.73 4.26 20.43 4.96 20.43 5.82L20.43 10.71L17.36 7.04ZM7.46 5.51C6.17 5.51 5.12 6.56 5.12 7.85C5.12 9.15 6.17 10.2 7.46 10.2C8.76 10.2 9.81 9.15 9.81 7.85C9.81 6.56 8.76 5.51 7.46 5.51ZM7.46 8.64C7.03 8.64 6.68 8.29 6.68 7.85C6.68 7.42 7.03 7.07 7.46 7.07C7.89 7.07 8.25 7.42 8.25 7.85C8.25 8.29 7.89 8.64 7.46 8.64ZM22 17.58C22 18.01 21.65 18.36 21.21 18.36L19.07 18.36L19.07 20.51C19.07 20.94 18.72 21.29 18.28 21.29C17.85 21.29 17.5 20.94 17.5 20.51L17.5 18.36L15.35 18.36C14.92 18.36 14.57 18.01 14.57 17.58C14.57 17.15 14.92 16.8 15.35 16.8L17.5 16.8L17.5 14.65C17.5 14.22 17.85 13.87 18.28 13.87C18.72 13.87 19.07 14.22 19.07 14.65L19.07 16.8L21.21 16.8C21.65 16.8 22 17.15 22 17.58Z" fill="#1A1A1A" fill-opacity="1.000000" fill-rule="nonzero"/>
</svg>
