<svg width="18.000000" height="20.000000" viewBox="0 0 18 20" fill="none" xmlns="http://www.w3.org/2000/svg"
	 xmlns:xlink="http://www.w3.org/1999/xlink">
	<defs/>
	<path id="Cart"
		  d="M18 16.9667C18 18.9824 16.9352 20 15.12 20L3.18423 20C1.06479 20 0 18.9922 0 16.9667L0 6.83948C0 4.81409 1.06479 3.80627 3.18423 3.80627L4.79662 3.80627C4.84732 1.75146 6.70309 0 8.99493 0C11.2868 0 13.1425 1.75146 13.1932 3.80627L14.8158 3.80627C16.9251 3.80627 18 4.82385 18 6.83948L18 16.9667ZM6.4293 3.80627C6.48 2.52441 7.56507 1.4873 8.99493 1.4873C10.4248 1.4873 11.5099 2.52441 11.5606 3.80627L6.4293 3.80627ZM3.20451 18.4247L15.0896 18.4247C15.7893 18.4247 16.3673 17.906 16.3673 16.8884L16.3673 6.91785C16.3673 5.90015 15.7893 5.38159 14.7854 5.38159L3.20451 5.38159C2.19042 5.38159 1.63268 5.90015 1.63268 6.91785L1.63268 16.8884C1.63268 17.906 2.19042 18.4247 3.20451 18.4247Z"
		  clip-rule="evenodd" fill="#1A1A1A" fill-opacity="1.000000" fill-rule="evenodd"/>
</svg>
