<svg width="24.000000" height="24.000000" viewBox="0 0 24 24" fill="none" xmlns="http://www.w3.org/2000/svg" xmlns:xlink="http://www.w3.org/1999/xlink">
	<desc>
			Created with Pixso.
	</desc>
	<defs/>
	<path id="Catalog" d="M4.56409 17.8406C4.74146 17.8406 4.93567 17.7886 5.13837 17.6586L5.13837 8.54248C5.13837 8.04858 5.22278 7.89258 5.6366 7.6499L13.347 3.0918C13.3386 2.40723 12.9078 2 12.342 2C12.0718 2 11.7847 2.08667 11.4807 2.26001L4.53027 6.36743C3.62665 6.90466 3.5 7.104 3.5 8.1958L3.5 16.3501C3.5 17.234 3.92224 17.8406 4.56409 17.8406ZM8.55859 19.6863C8.36438 19.8163 8.16168 19.8683 7.98438 19.8683C7.35944 19.8683 6.9118 19.2704 6.9118 18.3778L6.9118 10.2235C6.9118 9.14038 7.03851 8.92371 7.94214 8.39514L14.9009 4.27905C15.2049 4.10571 15.4921 4.02771 15.7538 4.02771C16.3365 4.02771 16.7673 4.43506 16.7673 5.11963L9.05688 9.67761C8.63464 9.92896 8.55859 10.059 8.55859 10.5615L8.55859 19.6863ZM11.6157 22C11.9366 22 12.3336 21.87 12.7727 21.6101L19.3514 17.7279C20.2129 17.2167 20.5 16.7573 20.5 15.6915L20.4916 7.90125C20.4916 6.75732 20.0609 6.15076 19.343 6.15076C19.0221 6.15076 18.6421 6.28076 18.2114 6.5321L11.6242 10.4315C10.7374 10.9601 10.4756 11.4194 10.4756 12.4679L10.4756 20.2582C10.4756 21.3761 10.8895 22 11.6157 22ZM12.1309 19.851C12.1309 19.9116 12.1393 19.9376 12.19 19.9463C12.2153 19.955 12.2407 19.9463 12.2745 19.929L18.4478 16.2374C18.7012 16.0901 18.7856 15.8909 18.7856 15.6309L18.8279 8.29114C18.8279 8.23047 18.8026 8.1958 18.7687 8.1958C18.735 8.18713 18.7097 8.1958 18.6843 8.21313L12.5363 11.922C12.2829 12.078 12.1985 12.234 12.1985 12.5372L12.1309 19.851Z" clip-rule="evenodd" fill="#1A1A1A" fill-opacity="1.000000" fill-rule="evenodd"/>
</svg>
