<svg width="24.000000" height="24.000000" viewBox="0 0 24 24" fill="none" xmlns="http://www.w3.org/2000/svg" xmlns:xlink="http://www.w3.org/1999/xlink">
	<desc>
			Created with Pixso.
	</desc>
	<defs/>
	<path id="Home" d="M1 11.09C1 11.47 1.29 11.83 1.79 11.83C2.05 11.83 2.26 11.69 2.45 11.54L3.65 10.52L3.65 19.32C3.65 20.61 4.41 21.35 5.73 21.35L18.2 21.35C19.51 21.35 20.28 20.61 20.28 19.32L20.28 10.46L21.56 11.54C21.74 11.69 21.95 11.83 22.21 11.83C22.64 11.83 23 11.56 23 11.12C23 10.85 22.9 10.66 22.71 10.5C19.51 7.81 16.3 5.14 13.11 2.43C12.43 1.85 11.58 1.85 10.89 2.43L1.29 10.5C1.09 10.66 1 10.88 1 11.09ZM6.05 19.87C5.46 19.87 5.13 19.54 5.13 18.94L5.13 9.28L11.68 3.79C11.88 3.61 12.13 3.61 12.33 3.79L18.79 9.21L18.79 18.94C18.79 19.54 18.47 19.87 17.89 19.87C13.52 19.87 10.48 19.87 6.05 19.87Z" fill="#1A1A1A" fill-opacity="1.000000" fill-rule="nonzero"/>
</svg>
