<svg width="24.000000" height="24.000000" viewBox="0 0 24 24" fill="none" xmlns="http://www.w3.org/2000/svg" xmlns:xlink="http://www.w3.org/1999/xlink">
	<desc>
			Created with Pixso.
	</desc>
	<defs/>
	<path id="Plus" d="M12 19C12.52 19 12.95 18.57 12.95 18.08L12.95 12.93L18.05 12.93C18.56 12.93 19 12.51 19 12C19 11.49 18.56 11.06 18.05 11.06L12.95 11.06L12.95 5.91C12.95 5.41 12.52 5 12 5C11.48 5 11.04 5.41 11.04 5.91L11.04 11.06L5.94 11.06C5.45 11.06 5 11.49 5 12C5 12.51 5.45 12.93 5.94 12.93L11.04 12.93L11.04 18.08C11.04 18.57 11.48 19 12 19Z" fill="#1A1A1A" fill-opacity="1.000000" fill-rule="evenodd"/>
</svg>
