<svg width="16.000000" height="16.000000" viewBox="0 0 16 16" fill="none" xmlns="http://www.w3.org/2000/svg"
	 xmlns:xlink="http://www.w3.org/1999/xlink">
	<defs/>
	<path id="Search"
		  d="M14.3601 15.7223C14.547 15.9075 14.7934 16 15.0568 16C15.6091 16 16 15.5792 16 15.0405C16 14.788 15.915 14.5524 15.7281 14.3672L11.726 10.3945C12.5672 9.30042 13.0685 7.94531 13.0685 6.47241C13.0685 2.91211 10.1285 0 6.53426 0C2.93999 0 0 2.91211 0 6.47241C0 10.0326 2.93999 12.9448 6.53426 12.9448C7.95326 12.9448 9.26182 12.4902 10.3325 11.7328L14.3601 15.7223ZM1.41051 6.47241C1.41051 9.24988 3.73022 11.5476 6.53426 11.5476C9.33829 11.5476 11.658 9.24988 11.658 6.47241C11.658 3.69495 9.33829 1.39722 6.53426 1.39722C3.73022 1.39722 1.41051 3.69495 1.41051 6.47241Z"
		  clip-rule="evenodd" fill="#7B8E98" fill-opacity="1.000000" fill-rule="evenodd"/>
</svg>
