<svg width="24.000000" height="24.000000" viewBox="0 0 24 24" fill="none" xmlns="http://www.w3.org/2000/svg"
	 xmlns:xlink="http://www.w3.org/1999/xlink">
	<defs/>
	<path id="Close"
		  d="M5.29 18.69C5.68 19.08 6.32 19.1 6.7 18.72L11.99 13.43L17.13 18.57C17.52 18.95 18.17 18.95 18.56 18.56C18.95 18.17 18.94 17.52 18.56 17.14L13.42 12L18.72 6.7C19.1 6.32 19.08 5.68 18.69 5.29C18.3 4.9 17.67 4.89 17.29 5.28L11.99 10.58L6.84 5.43C6.46 5.05 5.82 5.04 5.43 5.43C5.04 5.82 5.04 6.47 5.42 6.85L10.57 12L5.28 17.29C4.89 17.67 4.9 18.3 5.29 18.69Z"
		  fill="#1A1A1A" fill-opacity="1.000000" fill-rule="evenodd"/>
</svg>
