<svg width="20.000000" height="18.000000" viewBox="0 0 20 18" fill="none" xmlns="http://www.w3.org/2000/svg"
	 xmlns:xlink="http://www.w3.org/1999/xlink">
	<defs/>
	<path id="Favorites"
		  d="M10 18C10.2115 18 10.5136 17.8628 10.7351 17.7354C16.4048 14.2059 20 10.098 20 5.92151C20 2.45093 17.5529 0 14.29 0C12.427 0 10.9164 0.862793 10 2.18628C9.10373 0.872559 7.57301 0 5.70997 0C2.44713 0 0 2.45093 0 5.92151C0 10.098 3.59517 14.2059 9.27493 17.7354C9.4864 17.8628 9.78852 18 10 18ZM9.79859 16.2255C9.88923 16.2941 9.95972 16.3431 10 16.3431C10.0403 16.3431 10.1108 16.2941 10.2115 16.2255C14.4209 13.5 18.3787 9.5686 18.3787 5.92151C18.3787 3.31372 16.6465 1.57849 14.3102 1.57849C12.427 1.57849 11.3797 2.74512 10.6848 3.70593C10.3927 4.08826 10.2417 4.20593 10 4.20593C9.75831 4.20593 9.58711 4.09802 9.31521 3.70593C8.6707 2.72546 7.58308 1.57849 5.68983 1.57849C3.35347 1.57849 1.62135 3.31372 1.62135 5.92151C1.62135 9.5686 5.57905 13.5 9.79859 16.2255Z"
		  clip-rule="evenodd" fill="#1A1A1A" fill-opacity="1.000000" fill-rule="evenodd"/>
</svg>
