<svg width="24.000000" height="24.000000" viewBox="0 0 24 24" fill="none" xmlns="http://www.w3.org/2000/svg" xmlns:xlink="http://www.w3.org/1999/xlink">
	<desc>
			Created with Pixso.
	</desc>
	<defs/>
	<path id="Left half" d="M18.1663 21.3357C18.5354 21.0582 18.6165 20.6016 18.3914 19.957L16.509 14.3798L21.3181 10.951C21.8765 10.5571 22.1016 10.1364 21.9575 9.69763C21.8135 9.25903 21.3901 9.04419 20.6968 9.0531L14.7981 9.0979L13.0059 3.49365C12.7898 2.84021 12.4656 2.5 11.9973 2.5C11.5378 2.5 11.2136 2.84021 10.9976 3.49365L9.20557 9.0979L3.30664 9.0531C2.61328 9.04419 2.18994 9.25903 2.0459 9.69763C1.89282 10.1364 2.12695 10.5571 2.6853 10.951L7.49438 14.3798L5.61206 19.957C5.38696 20.6016 5.46802 21.0582 5.8374 21.3357C6.20654 21.6222 6.6748 21.5237 7.23315 21.1208L11.9973 17.6384L16.7703 21.1208C17.3286 21.5237 17.7878 21.6222 18.1663 21.3357ZM12.4565 16.2687L16.7883 19.5542C16.8242 19.5811 16.8513 19.59 16.8694 19.5721C16.8831 19.5515 16.8811 19.5414 16.8752 19.5135C16.8735 19.5051 16.8713 19.495 16.8694 19.4825L15.0771 14.3707C14.9512 14.0216 15.0232 13.7351 15.3384 13.5203L19.8232 10.4407C19.8591 10.4138 19.8772 10.396 19.8682 10.3781C19.8591 10.3512 19.8413 10.3512 19.7871 10.3512L14.3386 10.4407C13.9695 10.4497 13.7354 10.3064 13.6182 9.93933L12.0513 4.75598C12.0422 4.70227 12.0242 4.68433 11.9973 4.68433L11.9973 16.0986C12.1594 16.0896 12.3125 16.1523 12.4565 16.2687Z" clip-rule="evenodd" fill="#1A1A1A" fill-opacity="1.000000" fill-rule="evenodd"/>
</svg>
