<svg width="24.000000" height="24.000000" viewBox="0 0 24 24" fill="none" xmlns="http://www.w3.org/2000/svg"
	 xmlns:xlink="http://www.w3.org/1999/xlink">
	<desc>
		Created with Pixso.
	</desc>
	<defs/>
	<path id="Combined Shape"
		  d="M22 12C22 6.47717 17.5229 2 12 2C6.47705 2 2 6.47717 2 12C2 17.5228 6.47705 22 12 22C17.5229 22 22 17.5228 22 12ZM3.69995 12C3.69995 7.41602 7.41602 3.69995 12 3.69995C16.584 3.69995 20.3 7.41602 20.3 12C20.3 16.584 16.584 20.3 12 20.3C7.41602 20.3 3.69995 16.584 3.69995 12ZM10.6846 10.744C10.6846 10.3331 10.3621 10 9.96387 10C9.56592 10 9.24316 10.3331 9.24316 10.744L9.23804 10.875C9.16504 11.7711 8.3252 12.2319 6.7207 12.2319C6.32275 12.2319 6 12.5649 6 12.9758C6 13.3867 6.32275 13.7198 6.7207 13.7198C9.09277 13.7198 10.6846 12.7632 10.6846 10.744ZM14.0361 10C13.6379 10 13.3154 10.3331 13.3154 10.744C13.3154 12.7632 14.9072 13.7198 17.2793 13.7198C17.6772 13.7198 18 13.3867 18 12.9758C18 12.5649 17.6772 12.2319 17.2793 12.2319C15.5984 12.2319 14.7568 11.7262 14.7568 10.744C14.7568 10.3331 14.4341 10 14.0361 10ZM12.0288 15.4193C13.3215 15.4193 14.5425 15.8326 15.4595 16.5668C15.7869 16.8289 15.8464 17.3152 15.5928 17.6531C15.3389 17.991 14.8677 18.0524 14.5405 17.7904C13.8918 17.2712 12.9954 16.9678 12.0288 16.9678C11.0383 16.9678 10.1216 17.2867 9.4707 17.8285C9.14844 18.0968 8.67627 18.0446 8.41626 17.7118C8.15625 17.3789 8.20679 16.8915 8.5293 16.623C9.45288 15.8544 10.7029 15.4193 12.0288 15.4193Z"
		  clip-rule="evenodd" fill="#1A1A1A" fill-opacity="1.000000" fill-rule="evenodd"/>
</svg>
