<svg width="24.000000" height="24.000000" viewBox="0 0 24 24" fill="none" xmlns="http://www.w3.org/2000/svg" xmlns:xlink="http://www.w3.org/1999/xlink">
	<desc>
			Created with Pixso.
	</desc>
	<defs/>
	<path id="Comments" d="M16.4192 21C17.0544 21 17.4084 20.5469 17.4084 19.8491L17.4084 17.4929L17.844 17.4929C20.5481 17.4929 22 16.0066 22 13.3423L22 7.15051C22 4.48621 20.5481 3 17.844 3L6.15601 3C3.4519 3 2 4.49524 2 7.15051L2 13.3423C2 15.9976 3.4519 17.4929 6.15601 17.4929L11.9819 17.4929L15.1125 20.275C15.666 20.7644 15.9746 21 16.4192 21ZM13.1433 16.4597L16.0471 19.3416L16.0471 16.7135C16.0471 16.2241 16.2378 16.0338 16.7278 16.0338L17.844 16.0338C19.677 16.0338 20.5391 15.1005 20.5391 13.3333L20.5391 7.15051C20.5391 5.38342 19.677 4.45898 17.844 4.45898L6.15601 4.45898C4.33203 4.45898 3.46094 5.38342 3.46094 7.15051L3.46094 13.3333C3.46094 15.1005 4.33203 16.0338 6.15601 16.0338L12.0364 16.0338C12.5444 16.0338 12.7986 16.1063 13.1433 16.4597Z" clip-rule="evenodd" fill="#1A1A1A" fill-opacity="1.000000" fill-rule="evenodd"/>
</svg>
