<svg width="24.000000" height="24.000000" viewBox="0 0 24 24" fill="none" xmlns="http://www.w3.org/2000/svg" xmlns:xlink="http://www.w3.org/1999/xlink">
	<desc>
			Created with Pixso.
	</desc>
	<defs/>
	<path id="Star Fill" d="M18.16 21.33C18.53 21.05 18.61 20.6 18.39 19.95L16.5 14.37L21.31 10.95C21.87 10.55 22.1 10.13 21.95 9.69C21.81 9.25 21.39 9.04 20.69 9.05L14.79 9.09L13 3.49C12.78 2.84 12.46 2.5 11.99 2.5C11.53 2.5 11.21 2.84 10.99 3.49L9.2 9.09L3.3 9.05C2.61 9.04 2.18 9.25 2.04 9.69C1.89 10.13 2.12 10.55 2.68 10.95L7.49 14.37L5.61 19.95C5.38 20.6 5.46 21.05 5.83 21.33C6.2 21.62 6.67 21.52 7.23 21.12L11.99 17.63L16.77 21.12C17.32 21.52 17.78 21.62 18.16 21.33Z" fill="#1A1A1A" fill-opacity="1.000000" fill-rule="evenodd"/>
</svg>
