<svg width="24.000000" height="24.000000" viewBox="0 0 24 24" fill="none" xmlns="http://www.w3.org/2000/svg"
	 xmlns:xlink="http://www.w3.org/1999/xlink">
	<defs>
		<clipPath id="clip4130_1831">
			<rect id="whatsapp 1" width="24.000000" height="24.000000" fill="white" fill-opacity="0"/>
		</clipPath>
	</defs>
	<g>
		<rect id="whatsapp 1" width="24.000000" height="24.000000" fill="#FFFFFF" fill-opacity="0"/>
		<g clip-path="url(#clip4130_1831)">
			<path id="Subtract"
				  d="M12.003 0L11.997 0C5.38049 0 0 5.38196 0 12C0 14.625 0.846008 17.058 2.28448 19.0334L0.789001 23.4915L5.40149 22.017C7.29901 23.274 9.5625 24 12.003 24C18.6195 24 24 18.6165 24 12C24 5.38354 18.6195 0 12.003 0ZM16.6298 18.6393C17.5463 18.4413 18.6953 17.7633 18.9849 16.9458C19.2744 16.1267 19.2744 15.4293 19.1904 15.2808C19.1049 15.1323 18.8723 15.0482 18.5198 14.8712C18.1674 14.6958 16.4528 13.8483 16.1288 13.7357C15.8109 13.6157 15.5078 13.6577 15.2678 13.9968C14.9304 14.4692 14.5988 14.9492 14.3303 15.2388C14.1188 15.4637 13.7739 15.4923 13.4843 15.3723C13.0958 15.2103 12.0098 14.8292 10.6703 13.6367C9.63232 12.7128 8.92737 11.5623 8.72333 11.2173C8.52307 10.8712 8.6958 10.6682 8.85547 10.4807C8.85846 10.4772 8.86139 10.4738 8.86432 10.4702C9.04132 10.2512 9.20935 10.0952 9.38635 9.89124C9.56335 9.68726 9.66235 9.58081 9.77484 9.34082C9.89484 9.10828 9.80933 8.86829 9.72382 8.69128C9.63983 8.51428 8.93481 6.79224 8.64532 6.09473C8.41284 5.53833 8.23584 5.51721 7.88336 5.50232C7.76337 5.49622 7.62982 5.48877 7.48132 5.48877C7.02234 5.48877 6.54382 5.62378 6.25433 5.91931C5.90186 6.2793 5.02734 7.1178 5.02734 8.83972C5.02734 10.5618 6.28284 12.2268 6.45233 12.4592C6.62933 12.6918 8.90033 16.2753 12.4268 17.7363C15.1838 18.8793 16.0029 18.7728 16.6298 18.6393Z"
				  clip-rule="evenodd" fill="#1A1A1A" fill-opacity="1.000000" fill-rule="evenodd"/>
		</g>
	</g>
</svg>

