<svg width="24.000000" height="24.000000" viewBox="0 0 24 24" fill="none" xmlns="http://www.w3.org/2000/svg"
	 xmlns:xlink="http://www.w3.org/1999/xlink">
	<defs/>
	<path id="Down arrow"
		  d="M5 8.93C5 8.4 5.41 8 5.93 8C6.19 8 6.42 8.1 6.6 8.28L12 13.76L17.39 8.28C17.57 8.1 17.81 8 18.06 8C18.58 8 19 8.4 19 8.93C19 9.18 18.9 9.4 18.73 9.57L12.73 15.67C12.52 15.89 12.27 16 12 16C11.72 16 11.48 15.89 11.27 15.67L5.26 9.58C5.09 9.4 5 9.18 5 8.93Z"
		  fill="#1A1A1A" fill-opacity="1.000000" fill-rule="evenodd"/>
</svg>
