<svg width="24.000000" height="24.000000" viewBox="0 0 24 24" fill="none" xmlns="http://www.w3.org/2000/svg" xmlns:xlink="http://www.w3.org/1999/xlink">
	<desc>
			Created with Pixso.
	</desc>
	<defs/>
	<path id="Menu" d="M21.0741 7.88904C21.5907 7.88904 22 7.45837 22 6.9397C22 6.4209 21.6003 6 21.0741 6L2.9259 6C2.40936 6 2 6.4209 2 6.9397C2 7.45837 2.40936 7.88904 2.9259 7.88904L21.0741 7.88904ZM17.078 12.8793C17.6042 12.8793 18.0039 12.4584 18.0039 11.9397C18.0039 11.4111 17.6042 11 17.078 11L2.9259 11C2.40936 11 2 11.4209 2 11.9397C2 12.4486 2.40936 12.8793 2.9259 12.8793L17.078 12.8793ZM14.0565 16.9397C14.0565 17.4584 13.6472 17.889 13.1306 17.889L2.9259 17.889C2.40936 17.889 2 17.4584 2 16.9397C2 16.4209 2.40936 16 2.9259 16L13.1306 16C13.6472 16 14.0565 16.4209 14.0565 16.9397Z" clip-rule="evenodd" fill="#1A1A1A" fill-opacity="1.000000" fill-rule="evenodd"/>
</svg>
